<?xml version="1.0" encoding="utf-8"?>

<!DOCTYPE svg PUBLIC "-//W3C//DTD SVG 1.1//EN" "http://www.w3.org/Graphics/SVG/1.1/DTD/svg11.dtd">

<!-- License: PD. Made by mapshakers: https://github.com/mapshakers/mapkeyicons -->
<svg version="1.1" id="gear" xmlns="http://www.w3.org/2000/svg" xmlns:xlink="http://www.w3.org/1999/xlink" x="0px"
	 y="0px" width="800px" height="800px" viewBox="0 0 256 256" xml:space="preserve">
<style type="text/css">
<![CDATA[
	.st0{fill:#000000;}
]]>
</style>

<path class="st0" d="M195.82,210.063c-1.146,0.164-2.348-0.763-3.484-1.314c-1.563-0.764-3.158-1.462-4.734-2.195
	c-2.595-1.205-5.186-2.418-7.763-3.658c-1.417-0.685-2.831-1.375-4.237-2.08c-1.968-0.986-3.306-0.686-5.166,0.203
	c-5.42,2.586-10.939,4.983-16.541,7.145c-1.967,0.76-3.1,1.723-3.75,3.688c-2.078,6.271-4.424,12.457-6.375,18.767
	c-0.709,2.295-1.832,2.849-4.035,2.804c-6.262-0.124-12.534-0.195-18.792,0.026c-2.833,0.102-4.19-0.716-5.041-3.515
	c-1.92-6.315-4.158-12.543-6.466-18.729c-0.411-1.104-1.624-2.188-2.735-2.709c-5.756-2.697-11.562-5.3-17.441-7.72
	c-1.314-0.539-3.216-0.726-4.457-0.184c-6.159,2.697-12.223,5.622-18.239,8.631c-1.796,0.897-2.866,0.67-4.243-0.763
	c-4.754-4.94-9.613-9.783-14.539-14.55c-1.334-1.293-1.469-2.322-0.666-3.959c2.758-5.613,5.207-11.383,8.085-16.932
	c1.313-2.533,0.983-4.408-0.252-6.845c-2.554-5.034-4.889-10.216-6.802-15.521c-0.84-2.329-2.021-3.426-4.199-4.137
	c-6.281-2.056-12.488-4.334-18.782-6.346c-1.899-0.604-2.604-1.463-2.568-3.479c0.118-6.736,0.132-13.479-0.006-20.213
	c-0.044-2.168,0.733-3.111,2.741-3.761c6.51-2.108,12.989-4.324,19.401-6.71c1.215-0.451,2.441-1.693,3.024-2.883
	c2.793-5.71,5.458-11.489,7.95-17.336c0.544-1.278,0.704-3.164,0.168-4.385c-2.704-6.158-5.63-12.22-8.627-18.243
	c-0.883-1.774-0.723-2.874,0.733-4.272c4.86-4.666,9.653-9.411,14.282-14.305c1.564-1.654,2.781-1.514,4.571-0.623
	c6.022,2.997,12.071,5.948,18.21,8.695c1.161,0.521,2.918,0.394,4.163-0.07c5.737-2.141,11.432-4.416,17.047-6.859
	c1.308-0.569,2.758-1.778,3.269-3.045c2.421-6.014,4.61-12.124,6.724-18.254c0.65-1.885,1.604-2.528,3.586-2.495
	c6.855,0.117,13.716,0.105,20.57,0.006c1.871-0.026,2.682,0.685,3.27,2.399c2.064,6.024,4.348,11.975,6.434,17.993
	c0.677,1.947,1.73,2.908,3.799,3.598c5.693,1.901,11.197,4.361,16.853,6.383c1.339,0.478,3.195,0.587,4.447,0.037
	c6.048-2.657,12.009-5.52,17.913-8.484c1.857-0.932,3.043-0.94,4.559,0.663c4.709,4.98,9.657,9.733,14.342,14.737
	c0.688,0.735,0.957,2.579,0.539,3.518c-2.832,6.357-5.986,12.571-8.813,18.931c-0.513,1.147-0.353,2.879,0.104,4.12
	c2.023,5.527,4.396,10.929,6.366,16.474c0.729,2.046,1.563,3.333,3.759,4.061c5.819,1.93,11.504,4.272,17.313,6.236
	c2.182,0.737,2.855,1.861,2.807,4.104c-0.145,6.498-0.193,13.007,0.021,19.504c0.082,2.53-0.924,3.489-3.106,4.239
	c-5.909,2.039-11.786,4.188-17.583,6.523c-1.191,0.479-2.386,1.806-2.879,3.023c-2.385,5.891-4.609,11.85-6.693,17.852
	c-0.396,1.146-0.278,2.766,0.227,3.883c2.764,6.132,5.798,12.142,8.542,18.281c0.444,0.995,0.401,2.897-0.252,3.592
	c-2.08,2.205-4.188,4.382-6.313,6.543c-3.01,3.065-6.059,6.091-8.996,9.225C196.652,209.797,196.24,210.004,195.82,210.063z
	 M172.083,126.68c0.065-23.207-18.606-42.196-41.567-42.272c-23.586-0.079-42.52,18.377-42.604,41.532
	c-0.087,23.701,18.489,42.607,41.895,42.64C153.2,168.614,172.018,149.965,172.083,126.68z"/>
</svg>